<?xml version="1.0" encoding="UTF-8" standalone="no"?>
<!-- Created with Inkscape (http://www.inkscape.org/) -->

<svg
   width="500mm"
   height="500mm"
   viewBox="0 0 500 500"
   version="1.1"
   id="svg1"
   xml:space="preserve"
   inkscape:export-filename="Petal.svg"
   inkscape:export-xdpi="96"
   inkscape:export-ydpi="96"
   xmlns:inkscape="http://www.inkscape.org/namespaces/inkscape"
   xmlns:sodipodi="http://sodipodi.sourceforge.net/DTD/sodipodi-0.dtd"
   xmlns:xlink="http://www.w3.org/1999/xlink"
   xmlns="http://www.w3.org/2000/svg"
   xmlns:svg="http://www.w3.org/2000/svg"
   xmlns:rdf="http://www.w3.org/1999/02/22-rdf-syntax-ns#"
   xmlns:cc="http://creativecommons.org/ns#"
   xmlns:dc="http://purl.org/dc/elements/1.1/"><defs
     id="defs1"><linearGradient
       id="linearGradient9"
       inkscape:collect="always"><stop
         style="stop-color:#f098aa;stop-opacity:1;"
         offset="0"
         id="stop9" /><stop
         style="stop-color:#ed6a8a;stop-opacity:1;"
         offset="1"
         id="stop10" /></linearGradient><radialGradient
       inkscape:collect="always"
       xlink:href="#linearGradient9"
       id="radialGradient10"
       cx="0"
       cy="0.25890002"
       fx="0"
       fy="0.25890002"
       r="249.99998"
       gradientTransform="matrix(2,0,0,2.0000001,0,-0.51780005)"
       gradientUnits="userSpaceOnUse" /></defs><sodipodi:namedview
     id="base"
     pagecolor="#ffffff"
     bordercolor="#000000"
     borderopacity="0.3"
     inkscape:pageopacity="0.0"
     inkscape:pageshadow="2"
     inkscape:zoom="0.35355339"
     inkscape:cx="158.39192"
     inkscape:cy="999.84898"
     inkscape:document-units="mm"
     inkscape:showpageshadow="0"
     inkscape:pagecheckerboard="1"
     inkscape:deskcolor="#505050"
     inkscape:window-width="2560"
     inkscape:window-height="1369"
     inkscape:window-x="-8"
     inkscape:window-y="-8"
     inkscape:window-maximized="1"
     inkscape:current-layer="g12"><inkscape:page
       x="0"
       y="0"
       width="500"
       height="500"
       id="page2"
       margin="0"
       bleed="0" /></sodipodi:namedview><metadata
     id="metadata1"><rdf:RDF><cc:Work
         rdf:about=""><dc:format>image/svg+xml</dc:format><dc:type
           rdf:resource="http://purl.org/dc/dcmitype/StillImage" /></cc:Work></rdf:RDF></metadata><g
     id="g12"
     inkscape:label="Petal"><circle
       style="opacity:1;fill:#e9ad4d;fill-opacity:1;stroke:none;stroke-width:1.34524;stroke-miterlimit:0;paint-order:stroke fill markers"
       id="circle12"
       cx="250"
       cy="250"
       r="100"
       inkscape:label="Disc" /><path
       id="circle2"
       style="fill:url(#radialGradient10);stroke:none;stroke-width:1.1798;stroke-miterlimit:0;paint-order:stroke fill markers"
       inkscape:label="Petals"
       d="m 250.00024,0 c -52.1538,-2.3944429e-4 -94.43295,42.234961 -94.43299,94.33481 2e-5,1.993116 0.0633,3.98571 0.18965,5.97483 C 138.66004,85.72462 116.91505,77.711487 94.432479,77.711536 42.278879,77.711579 4.2525859e-5,119.9467 0,172.04635 -5.0421881e-6,203.08509 15.284217,232.13803 40.874508,249.74186 15.284366,267.34559 1.6276106e-4,296.39778 0,327.43634 c 4.1973576e-5,52.09965 42.278878,94.33477 94.432479,94.33481 22.499131,1.5e-4 44.259041,-8.02471 61.361111,-22.6291 -0.15075,2.1711 -0.22624,4.34679 -0.22634,6.52311 4e-5,52.09985 42.27919,94.33505 94.43299,94.33481 52.1536,-4e-5 94.43244,-42.23516 94.43248,-94.33481 -1e-4,-2.17632 -0.0756,-4.35201 -0.22634,-6.52311 17.10207,14.60439 38.86198,22.62925 61.36111,22.6291 52.1536,-4e-5 94.43244,-42.23516 94.43248,-94.33481 -0.0786,-31.10308 -15.49942,-60.16841 -41.22125,-77.69448 25.72198,-17.52617 41.14284,-46.59225 41.22125,-77.69551 -4e-5,-52.09965 -42.27888,-94.334772 -94.43248,-94.334814 -22.48258,-4.8e-5 -44.22756,8.013084 -61.32442,22.598104 0.12638,-1.98912 0.18963,-3.981714 0.18965,-5.97483 C 344.43268,42.23516 302.15384,4.1930155e-5 250.00024,0 Z m -5.1e-4,160.25895 a 90,90 0 0 1 90.00019,89.99968 90,90 0 0 1 -90.00019,90.00019 90,90 0 0 1 -89.99968,-90.00019 90,90 0 0 1 89.99968,-89.99968 z" /></g></svg>
