<?xml version="1.0" encoding="UTF-8" standalone="no"?>
<!-- Created with Inkscape (http://www.inkscape.org/) -->

<svg
   version="1.1"
   id="svg1"
   width="49.999985"
   height="56.986786"
   viewBox="0 0 49.999985 56.986786"
   sodipodi:docname="Lotus.svg"
   xmlns:inkscape="http://www.inkscape.org/namespaces/inkscape"
   xmlns:sodipodi="http://sodipodi.sourceforge.net/DTD/sodipodi-0.dtd"
   xmlns:xlink="http://www.w3.org/1999/xlink"
   xmlns="http://www.w3.org/2000/svg"
   xmlns:svg="http://www.w3.org/2000/svg">
  <defs
     id="defs1">
    <linearGradient
       id="linearGradient7"
       inkscape:collect="always">
      <stop
         style="stop-color:#5ff9ce;stop-opacity:1;"
         offset="0.00165563"
         id="stop7" />
      <stop
         style="stop-color:#10b9a0;stop-opacity:1;"
         offset="1"
         id="stop8" />
    </linearGradient>
    <linearGradient
       id="linearGradient5"
       inkscape:collect="always">
      <stop
         style="stop-color:#02ae97;stop-opacity:1;"
         offset="0"
         id="stop5" />
      <stop
         style="stop-color:#11ae95;stop-opacity:1;"
         offset="1"
         id="stop6" />
    </linearGradient>
    <linearGradient
       id="linearGradient1"
       inkscape:collect="always">
      <stop
         style="stop-color:#45ddb5;stop-opacity:1;"
         offset="0"
         id="stop1" />
      <stop
         style="stop-color:#0ebda3;stop-opacity:1;"
         offset="1"
         id="stop2" />
    </linearGradient>
    <linearGradient
       inkscape:collect="always"
       xlink:href="#linearGradient1"
       id="linearGradient2"
       x1="230.10777"
       y1="259.63745"
       x2="695.55334"
       y2="259.63745"
       gradientUnits="userSpaceOnUse"
       gradientTransform="matrix(0.10506083,0,0,0.10506083,205.93245,122.47293)" />
    <linearGradient
       inkscape:collect="always"
       xlink:href="#linearGradient1"
       id="linearGradient4"
       x1="291.763"
       y1="420.86539"
       x2="706.02252"
       y2="420.86539"
       gradientUnits="userSpaceOnUse"
       gradientTransform="matrix(0.10506083,0,0,0.10506083,205.93245,122.47293)" />
    <linearGradient
       inkscape:collect="always"
       xlink:href="#linearGradient5"
       id="linearGradient6"
       x1="472.11273"
       y1="579.82172"
       x2="666.49408"
       y2="579.82172"
       gradientUnits="userSpaceOnUse"
       gradientTransform="matrix(0.10506083,0,0,0.10506083,205.93245,122.43387)" />
    <linearGradient
       inkscape:collect="always"
       xlink:href="#linearGradient7"
       id="linearGradient8"
       x1="530.73901"
       y1="477.71136"
       x2="530.73901"
       y2="661.56891"
       gradientUnits="userSpaceOnUse"
       gradientTransform="matrix(0.10506083,0,0,0.10506083,205.93245,122.47293)" />
  </defs>
  <sodipodi:namedview
     id="namedview1"
     pagecolor="#505050"
     bordercolor="#ffffff"
     borderopacity="1"
     inkscape:showpageshadow="0"
     inkscape:pageopacity="0"
     inkscape:pagecheckerboard="1"
     inkscape:deskcolor="#505050">
    <inkscape:page
       x="0"
       y="0"
       width="49.999985"
       height="56.986786"
       id="page1"
       margin="0"
       bleed="0" />
  </sodipodi:namedview>
  <g
     id="g8"
     inkscape:label="Lotus"
     transform="translate(-230.10777,-136.88208)">
    <path
       style="display:inline;opacity:1;fill:url(#linearGradient6);fill-opacity:1;stroke:#a40000;stroke-width:0;stroke-linecap:round;stroke-linejoin:round"
       d="m 262.8452,193.86887 c 0,0 -1.92273,-4.56931 4.20738,-8.75407 6.13011,-4.18476 9.27434,-4.32048 8.86717,-12.28284 0,0 -3.54862,2.61648 -8.84455,4.52407 -8.37858,3.01795 -10.27245,5.85506 -10.27245,5.85506 0,0 -5.39066,6.37797 6.04245,10.65778 z"
       id="path4"
       inkscape:label="Back"
       sodipodi:nodetypes="cscscc" />
    <path
       style="display:inline;opacity:1;fill:url(#linearGradient8);stroke:#a40000;stroke-width:0;stroke-linecap:round;stroke-linejoin:round"
       d="m 261.0073,193.08794 c 0,0 -2.93499,-4.85771 -2.279,-8.45435 0.65599,-3.59663 2.12631,-5.33839 2.12631,-5.33839 0,0 2.17156,-3.07637 6.15273,-5.31578 3.98118,-2.23942 4.34311,-2.39776 4.34311,-2.39776 0,0 -13.14242,-0.56551 -16.60333,3.21209 -3.46091,3.77759 -2.62395,7.96236 -2.62395,7.96236 0,0 0.53157,6.91051 8.88413,10.33183 z"
       id="path6"
       inkscape:label="Bottom" />
    <path
       style="display:inline;opacity:1;fill:url(#linearGradient4);stroke:#a40000;stroke-width:0;stroke-linecap:round;stroke-linejoin:round"
       d="m 236.66217,164.7277 c 0,0 8.58596,4.67452 24.38901,1.5715 15.80305,-3.10303 16.89071,-7.77357 16.89071,-7.77357 0,0 2.91109,2.07935 1.98338,5.21437 -0.92771,3.13502 -3.10303,4.71852 -3.10303,4.71852 0,0 -5.19837,4.28666 -13.0839,5.59825 -7.88553,1.31158 -15.56312,0.6078 -15.56312,0.6078 -4.54116,-0.1782 -12.45341,-6.07006 -11.51305,-9.93687 z"
       id="path2"
       inkscape:label="Middle"
       sodipodi:nodetypes="cscscscc" />
    <path
       style="display:inline;opacity:1;fill:url(#linearGradient2);stroke:#a40000;stroke-width:0;stroke-linecap:round;stroke-linejoin:round"
       d="m 267.9574,137.53807 c 0,0 -23.11798,3.68711 -25.33477,11.73995 -2.21679,8.05284 26.35664,3.81002 29.0445,1.71914 0,0 6.28845,-4.0038 -5.47412,-5.02171 0,0 3.30257,-2.64658 9.81723,0.24882 6.51465,2.89541 0.88219,10.17915 -2.53348,11.53637 -3.41567,1.35722 -11.51375,5.21588 -19.70231,5.28374 -8.18856,0.0679 -15.85928,-1.06531 -18.31809,-2.59689 -2.15266,-1.34088 -4.82251,-2.37016 -5.32015,-8.11573 -0.49765,-5.74556 5.70032,-9.34219 5.70032,-9.34219 0,0 9.07336,-6.10749 25.31215,-6.10749 0,0 6.21334,0.31225 6.80872,0.65599 z"
       id="path1"
       inkscape:label="Top"
       sodipodi:nodetypes="csccsssssccc" />
  </g>
</svg>
