<?xml version="1.0" encoding="UTF-8" standalone="no"?>
<svg
   width="14"
   height="14"
   viewBox="0 0 14 14"
   version="1.1"
   id="svg1"
   xml:space="preserve"
   xmlns="http://www.w3.org/2000/svg"
   xmlns:svg="http://www.w3.org/2000/svg"><defs
     id="defs1" /><title
     id="title1">file_type_typescript</title><g
     id="file_type_typescript"
     stroke="none"
     stroke-width="1"
     fill="none"
     fill-rule="evenodd"
     style="fill:#497ce4;fill-opacity:1"
     transform="translate(-1,-1)"><path
       d="M 13.482,15 H 2.518 C 1.6798603,14.999448 1.0005516,14.32014 1,13.482 V 2.518 C 1.0005516,1.6798603 1.6798603,1.0005516 2.518,1 H 13.482 C 14.32014,1.0005516 14.999448,1.6798603 15,2.518 V 13.482 C 14.999448,14.32014 14.32014,14.999448 13.482,15 Z M 2.7749007,2 C 2.3471526,2.0005252 2.0005252,2.3471526 2,2.7749007 V 13.225099 C 2.0005252,13.652847 2.3471526,13.999475 2.7749007,14 H 13.225099 C 13.652847,13.999475 13.999475,13.652847 14,13.225099 V 2.7749007 C 13.999475,2.3471526 13.652847,2.0005252 13.225099,2 Z"
       id="Combined-Shape"
       fill="#86ACBF"
       style="fill:#497ce4;fill-opacity:1" /><path
       d="M 7.7141758,8.5799277 C 7.3636768,8.5969814 7.0310865,8.7398683 6.7774424,8.9823647 6.5339809,9.2230204 6.402879,9.5549237 6.4161638,9.8969943 c -0.01881,0.5306377 0.271612,1.0240867 0.744661,1.2652377 0.199283,0.111848 0.405493,0.210879 0.617375,0.296493 0.247044,0.07949 0.476363,0.206057 0.675301,0.372711 0.122854,0.13776 0.152751,0.335077 0.07622,0.503046 -0.02427,0.04365 -0.05454,0.08367 -0.08994,0.118902 -0.147917,0.130089 -0.341552,0.195914 -0.538107,0.182926 -0.376432,0.0094 -0.72857,-0.185314 -0.9207273,-0.509144 -0.019037,-0.03027 -0.040991,-0.05861 -0.065548,-0.0846 -0.00915,0 -0.7751486,0.442071 -0.7911546,0.457315 -0.016006,0.01524 0,0.03049 0.037347,0.09451 0.303514,0.513736 0.8356085,0.850124 1.4298709,0.903959 0.215362,0.02262 0.432501,0.02262 0.647863,0 0.354739,-0.03229 0.688998,-0.180401 0.951214,-0.421492 0.254474,-0.249127 0.391081,-0.594663 0.375761,-0.950453 0.0062,-0.221561 -0.04002,-0.441455 -0.134908,-0.641765 -0.05903,-0.125231 -0.140093,-0.238827 -0.239328,-0.335364 -0.301192,-0.271156 -0.65329,-0.47972 -1.035818,-0.613564 -0.235753,-0.07589 -0.454679,-0.196478 -0.644814,-0.355182 -0.08647,-0.09096 -0.129039,-0.2150563 -0.116615,-0.3399369 6.43e-4,-0.093976 0.03655,-0.1842851 0.100609,-0.2530475 0.097,-0.1059178 0.238132,-0.1601109 0.381095,-0.1463407 0.16868,-0.010455 0.333159,0.055281 0.448169,0.1791149 0.0488,0.048692 0.0927,0.1020457 0.131097,0.159298 0.01239,0.031296 0.03424,0.057942 0.0625,0.076219 0.02591,-0.011433 0.757618,-0.4839914 0.757618,-0.4908512 0,-0.00686 -0.03735,-0.0625 -0.08232,-0.1310969 C 9.0868118,9.0780879 8.9549428,8.9410683 8.8033468,8.8284021 8.5725828,8.6767684 8.3048688,8.5908679 8.0289608,8.5799277 c -0.104617,-0.011438 -0.210169,-0.011438 -0.314785,0 z"
       id="file_type_js.svg-path"
       fill="#86acbf"
       style="fill:#497ce4;fill-opacity:1;stroke-width:0.823994" /><polygon
       id="file_type_typescript.svg-path"
       fill="#86acbf"
       points="5.580039,13.051 5.580039,8.2130408 3.977,8.2130408 3.977,7.051 8.4428086,7.051 8.4428086,8.2130408 6.7895291,8.2130408 6.7895291,13.051 "
       transform="matrix(0.81715201,0,0,0.81715201,-0.79038351,2.8904733)"
       style="fill:#497ce4;fill-opacity:1" /></g><path
     id="rect1"
     style="opacity:1;fill:#497ce4;fill-opacity:1;stroke-width:7.00919;paint-order:fill markers stroke;stop-color:#000000;stop-opacity:1"
     d="m 8.462438,7.6309292 1.067108,-2.009e-4 2.949475,5.0380417 -1.068795,-0.0027 z" /><path
     id="rect1-4"
     style="opacity:1;fill:#497ce4;fill-opacity:1;stroke-width:7.00901;paint-order:fill markers stroke"
     d="m 12.48379,7.6199006 -1.073565,0.010828 -2.948856,5.0369854 1.068177,-0.0016 z" /></svg>
